# xmcd
#
# Track frame offsets:
#	150
#	13024
#	26230
#	39890
#	53209
#	63920
#	75012
#	88100
#	99436
#	111752
#	123024
#	134331
#	142141
#	154700
#	166955
#	177104
#	191448
#
# Disc length: 2718 seconds
#
# Revision: 3
# Processed by: cddbd v1.5.2PL0 Copyright (c) Steve Scherf et al.
# Submitted via: EasyCDDAExtractor 16.0.6.1
#
DISCID=d00a9c11
DTITLE=Elmore James - JB-147 Standing At The Crossroads
DYEAR=1900
DGENRE=Blues
TTITLE0=Anna Lee
TTITLE1=Stranger Blues
TTITLE2=My Bleeding Heart
TTITLE3=Standing At The Crossroads
TTITLE4=One Way Out
TTITLE5=Person To Person
TTITLE6=My Kind Of Woman
TTITLE7=So Unkind
TTITLE8=Got To Move
TTITLE9=Look On Yonder Wall
TTITLE10=Shake Your Moneymaker
TTITLE11=Mean Mistreatin' Mama (Take 1)
TTITLE12=Mean Mistreatin' Mama (Take 2)
TTITLE13=Mean Mistreatin' Mama (Take 3)
TTITLE14=Sunnyland Train
TTITLE15=My Baby's Gone
TTITLE16=Find My Kinda Woman
EXTD=
EXTT0=
EXTT1=
EXTT2=
EXTT3=
EXTT4=
EXTT5=
EXTT6=
EXTT7=
EXTT8=
EXTT9=
EXTT10=
EXTT11=
EXTT12=
EXTT13=
EXTT14=
EXTT15=
EXTT16=
PLAYORDER=
